<svg id="Layer_1" data-name="Layer 1" xmlns="http://www.w3.org/2000/svg" viewBox="0 0 100.3 95.1"><defs><style>.cls-1{fill:#003087;}</style></defs><path class="cls-1" d="M99.87,48.31,86.63,31.24a2,2,0,0,0-1.58-.78H50.91a1.94,1.94,0,0,0-1.53,0H15.25a2,2,0,0,0-1.58.78L.42,48.31A2,2,0,0,0,.2,50.42a2,2,0,0,0,.92.9L48.8,94.58l.25.19,0,0a2.28,2.28,0,0,0,.45.2l.11,0a1.79,1.79,0,0,0,1,0l.11,0a2.28,2.28,0,0,0,.45-.2l0,0a2.48,2.48,0,0,0,.26-.19L99.17,51.32a2,2,0,0,0,.92-.9A2,2,0,0,0,99.87,48.31ZM68.1,51.55l-17.95,37-18-36.95Zm-33.53-4L50.15,34.88,65.72,47.54ZM56,34.47H80.87L71.16,46.79ZM29.14,46.79,19.43,34.47H44.28Zm-1.41,4.76L43.8,84.63,7.34,51.55Zm44.83,0H93L56.49,84.63Zm3.12-4L85,35.7l9.17,11.84ZM15.29,35.7l9.33,11.84H6.1Z"/><path class="cls-1" d="M51.44,17.55a2,2,0,0,0,1.42.59,2,2,0,0,0,1.42-.59l5.65-5.64,5.64,5.64a2,2,0,1,0,2.84-2.84L62.76,9.07l5.65-5.65A2,2,0,0,0,65.57.59L59.93,6.23,54.28.59a2,2,0,1,0-2.84,2.83l5.65,5.65-5.65,5.64A2,2,0,0,0,51.44,17.55Z"/><path class="cls-1" d="M28.21,24a2,2,0,0,0,1.42.59A2,2,0,0,0,31.05,24l3-3,3,3a2,2,0,0,0,2.84,0,2,2,0,0,0,0-2.83l-3-3,3-3A2,2,0,0,0,37,12.34l-3,3-3-3a2,2,0,0,0-2.84,2.83l3,3-3,3A2,2,0,0,0,28.21,24Z"/></svg>