<svg id="Layer_1" data-name="Layer 1" xmlns="http://www.w3.org/2000/svg" viewBox="0 0 183.58 95.1"><defs><style>.cls-1{fill:#003087;}</style></defs><path class="cls-1" d="M183.48,52.67,167.71,5.28A2,2,0,0,0,165.17,4L138,13.08a2,2,0,0,0-1.27,2.54l.29.87-16.92,5.63-17.88-3.95-1.84-5.83A2,2,0,0,0,98.67,11L83.52,9.44l-7.65-.66a2,2,0,0,0-.81.1L54.74,15.65l.62-1.86a2,2,0,0,0-1.27-2.54L20.59.1a2,2,0,0,0-1.53.11,2,2,0,0,0-1,1.16L.1,55.31a2,2,0,0,0,.11,1.54,2,2,0,0,0,1.16,1L34.87,69a2,2,0,0,0,.63.1,2,2,0,0,0,1.9-1.37L39,63a16,16,0,0,0,1.67,1.39,8.69,8.69,0,0,0,.27,1.12,8,8,0,0,0,7.54,5.44A8.23,8.23,0,0,0,51,70.52c.26-.09.51-.19.76-.3l2.82,1.41a7.93,7.93,0,0,0,10.27,5.84,7.44,7.44,0,0,0,.78-.31l2.28,1.15a7.59,7.59,0,0,0,.22.78,8,8,0,0,0,7.55,5.47,7.78,7.78,0,0,0,2.51-.42,6.47,6.47,0,0,0,.77-.3L81.26,85a8,8,0,0,0,4.21,5.4,7.84,7.84,0,0,0,3.54.84,8.06,8.06,0,0,0,3.54-.85h0l7.74,3.87a7.94,7.94,0,0,0,11.3-8.92l2.06,1a7.95,7.95,0,0,0,11.29-9l1.31.66a8,8,0,0,0,11.31-8.94,8,8,0,0,0,10.56-3.61,7.94,7.94,0,0,0-.68-8.23l2.79-.93L152.45,63a2,2,0,0,0,1.9,1.37,2,2,0,0,0,.64-.1l27.22-9.06a2,2,0,0,0,1.27-2.53ZM34.23,64.56,4.54,54.68,21.23,4.54l29.69,9.89-1,2.95a2,2,0,0,0-.69,2.07ZM46.71,66.5a3.88,3.88,0,0,1-2-2.28,4,4,0,0,1-.19-1.37v-.21a4.23,4.23,0,0,1,.11-.62,1.21,1.21,0,0,1,.05-.18A4.23,4.23,0,0,1,45,61.2L47,57a4,4,0,0,1,2.28-2,5.62,5.62,0,0,1,.71-.16h.2a2.44,2.44,0,0,1,.47,0,3.55,3.55,0,0,1,.56.06l.27,0a3.91,3.91,0,0,1,.81.29h0a4,4,0,0,1,1.76,5.29L52,64.74a4,4,0,0,1-.35.56l-.16.2-.25.27a3.62,3.62,0,0,1-.42.36,3.89,3.89,0,0,1-4.11.37Zm13.87,6.94a4,4,0,0,1-2.17-3.64,1.41,1.41,0,0,1,0-.2,3.23,3.23,0,0,1,.1-.61,1.21,1.21,0,0,1,0-.18,4.38,4.38,0,0,1,.24-.66l5-9.89a4,4,0,0,1,2.28-2,4.15,4.15,0,0,1,.7-.15.86.86,0,0,1,.23,0,3.17,3.17,0,0,1,.44,0,5.54,5.54,0,0,1,.57.07l.27.05a4,4,0,0,1,.8.29h0a3.93,3.93,0,0,1,1.76,5.29l-4.95,9.89a3.47,3.47,0,0,1-.52.77l-.18.19a3.93,3.93,0,0,1-.58.5,4,4,0,0,1-1,.52A3.91,3.91,0,0,1,60.58,73.44Zm13.34,6.68a3.9,3.9,0,0,1-2-2.29,3.85,3.85,0,0,1-.19-1.26,3.37,3.37,0,0,1,0-.44,3.69,3.69,0,0,1,.08-.46l.06-.21a3.41,3.41,0,0,1,.24-.63l6.11-12.22a4.07,4.07,0,0,1,.38-.6l.12-.15a3,3,0,0,1,.39-.4l.11-.11a3.58,3.58,0,0,1,.55-.38l.15-.08a4,4,0,0,1,.47-.21l.19-.06a3.61,3.61,0,0,1,.65-.15h.08a3.37,3.37,0,0,1,.55,0,3.68,3.68,0,0,1,.57.06,2.56,2.56,0,0,1,.27.05,3.46,3.46,0,0,1,.8.28h0a3.87,3.87,0,0,1,1.15.88l.09.08c.09.11.16.24.24.36a2.61,2.61,0,0,1,.19.27c.07.13.12.27.18.4s.1.19.13.29a4,4,0,0,1,.19,1.42s0,.06,0,.09a4.15,4.15,0,0,1-.41,1.51L79.21,78.36h0a4,4,0,0,1-.52.77l-.18.18a4.63,4.63,0,0,1-.58.5,4.13,4.13,0,0,1-1,.52A3.89,3.89,0,0,1,73.92,80.12ZM87.26,86.8a4,4,0,0,1-2.17-3.65,1.21,1.21,0,0,1,0-.19,3.21,3.21,0,0,1,.1-.62,1.8,1.8,0,0,1,0-.19,3.91,3.91,0,0,1,.24-.65l2.1-4.18a4,4,0,0,1,2.28-2,4.18,4.18,0,0,1,.7-.16l.23,0h.44a3.83,3.83,0,0,1,.58.07l.26,0a4.07,4.07,0,0,1,.76.28l0,0a3.94,3.94,0,0,1,1.78,5.29L92.56,85v0a3.84,3.84,0,0,1-.5.74l-.18.19a4.62,4.62,0,0,1-.52.46A4,4,0,0,1,87.26,86.8Zm57.28-23.08a3.94,3.94,0,0,1-5.29,1.76L122,56.83a2,2,0,0,0-1.67-.06A2,2,0,0,0,119.15,58c-.11.32-.21.63-.34.94a2,2,0,0,0,1,2.57l11.83,5.91a3.94,3.94,0,0,1,1.76,5.3,4,4,0,0,1-5.29,1.76l-11.77-5.89a2,2,0,0,0-2.69.89l-.52,1a2,2,0,0,0,.89,2.7l5,2.51a3.94,3.94,0,1,1-3.53,7l-5-2.52a2,2,0,0,0-2.63.79,14.05,14.05,0,0,1-.82,1.24,2,2,0,0,0,0,2.43,4,4,0,0,1,.42,4.2,4,4,0,0,1-2.29,2,3.87,3.87,0,0,1-3-.22L95.77,87.5c.13-.22.26-.44.37-.67l2.11-4.19a7.86,7.86,0,0,0,.42-6.07,7.59,7.59,0,0,0-.4-1,7.89,7.89,0,0,0-2.9-3.24,7.69,7.69,0,0,0-.69-.39l-.47-.21a7.9,7.9,0,0,0-6.52.15l-.26.13-.66.38-.14.09,2.29-4.57a7.62,7.62,0,0,0,.73-2.27,8,8,0,0,0-4.29-8.41h0a7.28,7.28,0,0,0-.71-.31l-.29-.1-.43-.14-.36-.08-.37-.08-.39-.06-.35,0-.4,0h-.74l-.31,0-.42.05-.3.06-.42.09-.27.07-.42.13-.26.1-.42.17-.21.11a7.25,7.25,0,0,0-1.35.84l-.26.2-.28.25-.27.26a3,3,0,0,0-.24.26l-.27.31-.2.27-.17.21h0a9.15,9.15,0,0,0-.1-1c0-.08,0-.17-.05-.25a6.59,6.59,0,0,0-.26-1,7.89,7.89,0,0,0-4-4.59h0a8,8,0,0,0-10.68,3.55l-1.74,3.46a.49.49,0,0,0,0-.12,8.24,8.24,0,0,0,.07-1v-.18a7.74,7.74,0,0,0-.1-1.07,2.23,2.23,0,0,0,0-.23,6,6,0,0,0-.26-1v0a8.65,8.65,0,0,0-.42-1l-.11-.22a7.46,7.46,0,0,0-.55-.9L56.92,54a6.22,6.22,0,0,0-.63-.73,1,1,0,0,0-.14-.15,6.07,6.07,0,0,0-.82-.7l-.21-.16a8.24,8.24,0,0,0-.95-.57l0,0a7,7,0,0,0-.69-.31,8,8,0,0,0-10,3.86l-2.09,4.18-.09.18c-.29-.32-.56-.66-.82-1L53.16,20.4l22.78-7.58,7.21.61L96.9,14.8l.75,2.37-3.82-.85h0l-.13,0a2.11,2.11,0,0,0-.83,0l-5.59,1.14-1.79.35L72.19,20.5l-1.43.29-.16,0a3.21,3.21,0,0,0-.33.12l-.2.08a1.7,1.7,0,0,0-.3.23.67.67,0,0,0-.16.12,1.49,1.49,0,0,0-.24.32,1.21,1.21,0,0,0-.1.14,1.73,1.73,0,0,0-.2.55L64.91,42.65A2,2,0,0,0,66.37,45l.14,0,.38.1,3.37.69a12.37,12.37,0,0,0,14.55-9.65l.15-.76,9.15-.95.52.53a23.83,23.83,0,0,0,4.44,3.9c.27.2.54.38.8.54l.08.06.87.52.13.06c.3.18.6.34.83.45l.15.07a1,1,0,0,0,.17.1l.3.14.47.23.29.12c.25.12.51.23.78.34l.31.12.11,0,.66.26.41.14.1,0c.23.08.45.16.62.2l.15,0,.21.06.19.06.66.19,1.17.28h0c.41.09.82.17,1.21.23l.17,0,.74.11.21,0,.15,0h.09l1.16.13h.1l.2,0,.52,0h0l29.67,14.85a3.93,3.93,0,0,1,1.76,5.29Zm-.95-9.38L120.43,42.76l-5.9-3a2.86,2.86,0,0,0-.41-.15l-.16,0a1.17,1.17,0,0,0-.26,0,24.46,24.46,0,0,1-4.3-.55c-.64-.15-1.28-.32-1.9-.51l-.11,0c-.61-.19-1.21-.41-1.8-.64l-.06,0a23.63,23.63,0,0,1-3.44-1.75l-.07,0a31.82,31.82,0,0,1-4.53-3.87c-.3-.36-.6-.71-.87-1.08a2,2,0,0,0-1.84-.82L83.14,31.57H83a1.58,1.58,0,0,0-.31.09,1.47,1.47,0,0,0-.3.08,1.74,1.74,0,0,0-.36.24,1.63,1.63,0,0,0-.17.11,1.72,1.72,0,0,0-.26.33c0,.06-.09.1-.13.16a2.12,2.12,0,0,0-.22.61l-.41,2.19a8.33,8.33,0,0,1-9.82,6.49l-1.83-.37,3.5-17L88.1,21.34l5.26-1,4.74,1.05,2.07.46h0l19.53,4.31a2,2,0,0,0,1.07,0l17.44-5.81L149,52.55Zm12,5.48-14.5-43.57,23.42-7.8L179,52Z"/></svg>