<svg id="Layer_1" data-name="Layer 1" xmlns="http://www.w3.org/2000/svg" viewBox="0 0 108.09 95.1"><defs><style>.cls-1{fill:#003087;}</style></defs><polygon class="cls-1" points="0 40.75 27.03 40.75 27.03 91.15 0 91.15 0 95.1 30.98 95.1 30.98 36.8 0 36.8 0 40.75"/><path class="cls-1" d="M99.21,26.87H79.87a8.89,8.89,0,0,0-7.21,3.71c-.09-.37-.19-.74-.3-1.1l3-8.79V10.63A10.64,10.64,0,0,0,64.74,0H61.85l-.48,0L59.52.15V14.61L56.6,18.72,44.13,32.35a17.25,17.25,0,0,0-3.79,6.25H37.57v3.95h5.8L43.74,41A13.24,13.24,0,0,1,47,35L59.6,21.3l3.87-5.44V4h1.27a6.69,6.69,0,0,1,6.68,6.68V20L68.18,29.5l.24.64a21.56,21.56,0,0,1,.29,13,21,21,0,0,1-8.49,11.94,15.14,15.14,0,0,1-12.61,2.21l-1.07,3.8a18.14,18.14,0,0,0,5,.69,19.81,19.81,0,0,0,10.91-3.4A24.07,24.07,0,0,0,68,53.09a8.94,8.94,0,0,0,1.79,2.67,8.86,8.86,0,0,0-1,14.54A8.86,8.86,0,0,0,67,82.17H56.6A13.14,13.14,0,0,1,46,76.83L45.39,76H37.57V80h5.88A17,17,0,0,0,56.6,86.12H82.09v0h6.07a8.87,8.87,0,0,0,7.25-14A8.87,8.87,0,0,0,100,57.2,8.83,8.83,0,0,0,102.44,44a8.88,8.88,0,0,0-3.23-17.15Zm-11,55.27H74.34a4.94,4.94,0,1,1,0-9.87H88.16a4.94,4.94,0,0,1,0,9.87Zm5.52-13.82H74.34a4.94,4.94,0,1,1,0-9.87H93.68a4.94,4.94,0,1,1,0,9.87Zm1.85-13.81H76.18a4.94,4.94,0,0,1,0-9.87H95.53a4.94,4.94,0,0,1,0,9.87Zm3.68-13.82H79.87a4.94,4.94,0,1,1,0-9.87H99.21a4.94,4.94,0,0,1,0,9.87Z"/></svg>