<svg id="Layer_1" data-name="Layer 1" xmlns="http://www.w3.org/2000/svg" viewBox="0 0 72.33 95.1"><defs><style>.cls-1{fill:#003087;}</style></defs><path class="cls-1" d="M36.16,95.1a2.07,2.07,0,0,1-1.07-.31c-3.08-2-5.92-3.68-8.66-5.36C10,79.38,0,73.31,0,57.17V13.39a2,2,0,0,1,2-2c13.16,0,20.6-.48,32.86-10.9a2,2,0,0,1,2.59,0c12.26,10.42,19.7,10.9,32.86,10.9a2,2,0,0,1,2,2V57.17c0,16.14-9.95,22.21-26.43,32.26-2.74,1.68-5.58,3.41-8.66,5.36A2.08,2.08,0,0,1,36.16,95.1ZM4,15.39V57.17C4,71.06,12.2,76.05,28.52,86c2.44,1.49,4.95,3,7.64,4.71C38.86,89,41.37,87.5,43.81,86c16.32-10,24.51-15,24.51-28.84V15.39c-12.14-.07-20.23-1-32.16-10.77C24.24,14.35,16.15,15.32,4,15.39Z"/><path class="cls-1" d="M52.38,33.68l2.76,2.6L32.4,61.42,18.46,46.5l2.66-2.6L32.54,56,52.38,33.68m0-4H52.2A4,4,0,0,0,49.38,31l-16.93,19L24,41.15a4.06,4.06,0,0,0-2.83-1.26h-.09A4,4,0,0,0,18.32,41l-2.66,2.59a4,4,0,0,0-.13,5.61L29.47,64.15a4,4,0,0,0,2.93,1.28h0a4,4,0,0,0,2.94-1.32L58.12,39a4,4,0,0,0-.23-5.61l-2.76-2.6a4,4,0,0,0-2.75-1.09Z"/></svg>