<svg id="Layer_1" data-name="Layer 1" xmlns="http://www.w3.org/2000/svg" viewBox="0 0 77.67 95.1"><defs><style>.cls-1{fill:#003087;}</style></defs><path class="cls-1" d="M53.79,52.28a9.49,9.49,0,0,0-2.82.17A26,26,0,0,0,59,40.7v3.44a6,6,0,0,0,6,6H66.5a7.52,7.52,0,0,0,7.5-7.5v-10a6,6,0,0,0-5.66-6C67.64,21.52,64.47,12,57,5.76,52.66,2.14,46.12,0,39.41,0H39C31.93.09,25.5,2.16,20.9,5.83,13.18,12,9.5,21.38,9,26.62a6,6,0,0,0-5.51,6V44.14a6,6,0,0,0,6,6H11a7.52,7.52,0,0,0,4.37-1.42,23.33,23.33,0,0,0,8.43,3,5.68,5.68,0,0,0,.22.7,25.75,25.75,0,0,0-17.6,9.53C2.46,66.69,0,72.69,0,77.61,0,88.89,14,95.1,39.3,95.1c31.71,0,38.37-9.51,38.37-17.49C77.67,68.25,69.16,53.85,53.79,52.28Zm-13.21.55a6.6,6.6,0,0,0-6-9.39h-4.4a6.42,6.42,0,0,0-1.92.29,32.17,32.17,0,0,1-4.08-.32,20.9,20.9,0,0,1-2.77-10.13c0-10,8.14-18.86,17.41-18.86s17.42,8.81,17.42,18.86C56.25,43.75,48.31,51.75,40.58,52.83Zm-6-.18h-4.4a2.6,2.6,0,1,1,0-5.2h4.4a2.6,2.6,0,1,1,0,5.2Zm33.4-22a2,2,0,0,1,2,2v10a3.49,3.49,0,0,1-3.48,3.49H65a2,2,0,0,1-2-2V32.6a2,2,0,0,1,2-2Zm-53.51,12A3.51,3.51,0,0,1,11,46.14H9.5a2,2,0,0,1-2-2V32.6a2,2,0,0,1,2-2h3a2,2,0,0,1,2,2ZM13,26.62A30.26,30.26,0,0,1,23.41,9c3.9-3.12,9.46-4.88,15.65-5C44.93,4,50.71,5.74,54.4,8.83c6.48,5.43,9.19,13.56,9.89,17.81a6,6,0,0,0-4.37,2.78c-1.83-10.5-10.9-19-21.09-19S19.45,19,17.71,29.64A6,6,0,0,0,13,26.62ZM17.9,45.56a7.39,7.39,0,0,0,.6-2.91v-2.4a26,26,0,0,0,2.71,6,2,2,0,0,0,1.14.86,11.63,11.63,0,0,0,1.77.34,2.18,2.18,0,0,0-.09.23A19.72,19.72,0,0,1,17.9,45.56ZM39.3,91.09C28.69,91.09,4,89.77,4,77.61c0-6.87,7.06-20.22,20.54-21.22l.39,0c1.84,0,3.79,1,5.85,1.94,2.39,1.15,5.09,2.46,8.1,2.46s5.54-1.28,8.09-2.51c2.32-1.12,4.53-2.18,6.4-2,12.56,1.28,20.28,13.29,20.28,21.34C73.66,82.64,69.19,91.09,39.3,91.09Z"/></svg>