<svg id="Layer_1" data-name="Layer 1" xmlns="http://www.w3.org/2000/svg" viewBox="0 0 127.44 95.1"><defs><style>.cls-1{fill:#003087;}</style></defs><path class="cls-1" d="M127.43,61.7a2.06,2.06,0,0,0-.18-.87,11.87,11.87,0,0,0-10.7-6.8h-7.34A22.91,22.91,0,0,0,95.57,21.9a22.94,22.94,0,0,0-30-17.58A22.94,22.94,0,0,0,31.07,14a18.79,18.79,0,0,0-12.91,7.18,21.24,21.24,0,0,0-9.65,38v5.38H7.58A7.59,7.59,0,0,0,0,72.14V82.68a7.59,7.59,0,0,0,7.58,7.57h1.7A8.53,8.53,0,0,0,13,92.55c.1,1.3,1.29,2.55,3.8,2.55a4.31,4.31,0,0,0,3-1,86.33,86.33,0,0,0,11.06.72h2.63a86.46,86.46,0,0,0,11.07-.72,4.28,4.28,0,0,0,3,1c2.52,0,3.7-1.25,3.81-2.55,2.62-1,4.44-2.36,4.44-4.33v-1.3a6.19,6.19,0,0,0,.63,0,5.31,5.31,0,0,0,1.69-.29A4.21,4.21,0,0,0,61,84.12a5.72,5.72,0,0,0-.61-4.44H97.05a11.22,11.22,0,0,0,19.94,0h3.56l6.89-9.77V61.7ZM32.55,18l1.4,0,.47-1.31A18.86,18.86,0,0,1,64,8.21l.93.74L66,8.51A18.88,18.88,0,0,1,91.73,23.75l.17,1.39,1.36.34A18.81,18.81,0,0,1,104.5,54H96.35L85.41,40.74A2,2,0,0,0,83.84,40H66.66V37a3.75,3.75,0,1,0-5.21-1.14A3.65,3.65,0,0,0,62.59,37v3H55.82V37A9.74,9.74,0,0,0,57,39.56l3.43-2.19a5.89,5.89,0,0,1-.9-3.13,5.12,5.12,0,1,1,10.22,0,5.79,5.79,0,0,1-1,3.23l3.38,2.27a9.8,9.8,0,0,0,1.66-5.5,9.17,9.17,0,0,0-18.32-.88A11.25,11.25,0,0,0,54,29.85a11.37,11.37,0,0,1,10.67-7.07C70.89,22.78,76,27.6,76,33.51a10,10,0,0,1-.91,4.22l3.71,1.69a14.19,14.19,0,0,0,1.28-5.91c0-8.16-6.93-14.8-15.44-14.8a15.5,15.5,0,0,0-13.71,8.06A10.85,10.85,0,0,0,49,25.7a17.8,17.8,0,0,1,15.66-9c9.74,0,17.65,7.42,17.65,16.53a15.59,15.59,0,0,1-.78,4.89l3.87,1.27a19.71,19.71,0,0,0,1-6.16c0-11.36-9.75-20.6-21.73-20.6a21.83,21.83,0,0,0-19.8,12.16H20.55l.4-.57A14.67,14.67,0,0,1,32.55,18ZM18.13,29.08a6.66,6.66,0,0,1,1.62-.2H44.58a6.8,6.8,0,0,1,1.63.2V58.87H18.13ZM8.51,81.66v4.52H7.58a3.51,3.51,0,0,1-3.51-3.5V72.14a3.52,3.52,0,0,1,3.51-3.51h.93V80.92h0C8.54,81.17,8.51,81.41,8.51,81.66Zm0-45.61v17.6A17.12,17.12,0,0,1,12.85,27.2,11.21,11.21,0,0,0,8.51,36.05Zm5.54-4.33V58.2a3.49,3.49,0,0,1-1.47-2.84V36.05A7.18,7.18,0,0,1,14.05,31.72Zm37.7,56.15c-1.17,1-7.5,2.9-18.27,2.9H30.85c-10.76,0-17.1-1.85-18.27-2.9V81.66A11.73,11.73,0,0,1,24.29,70H40A11.72,11.72,0,0,1,51.75,81.66Zm0-16.76A15.74,15.74,0,0,0,40,65.88H24.29a15.77,15.77,0,0,0-11.71,5.23v-9a7.56,7.56,0,0,0,3.51.86H48.25a7.52,7.52,0,0,0,3.5-.86Zm0-17.49v1.74a3.46,3.46,0,0,1-1.47,2.84V33.44l1.47,4.5V53.62Zm4.07-4.42h2.41v2.69H55.82Zm1.06,33.61a.9.9,0,0,1-.48.08,3.29,3.29,0,0,1-.57-2v-1c.07.13.16.27.26.43a5.61,5.61,0,0,1,1.08,2.32A1.57,1.57,0,0,1,56.88,82.81Zm8.58-7.2H57.93A23.32,23.32,0,0,1,56.4,72.7a11.07,11.07,0,0,0-.57-2.16V67.27h0V63.74h9.64Zm0-19.54v3.59H55.82V56h6.49V45.13H55.82V44.07H82.88L93.82,57.36a2,2,0,0,0,1.57.75h21.16a7.76,7.76,0,0,1,4.65,1.55H69.54V56.07h21L81.45,45.13h-16Zm4.07-6.87h10L81.88,52H69.53ZM95.78,74.5c0,.38,0,.74,0,1.11H69.54V63.74H103.8A11.25,11.25,0,0,0,95.78,74.5ZM107,81.67a7.17,7.17,0,1,1,7.17-7.17A7.18,7.18,0,0,1,107,81.67Zm16.35-13-4.93,7h-.23a10.18,10.18,0,0,0,.06-1.11,11.25,11.25,0,0,0-8-10.76h13.13Z"/><path class="cls-1" d="M20.35,54.43H43.43V38.22H20.35ZM24.42,42.3H39.36v8.06H24.42Z"/></svg>